<svg xmlns="http://www.w3.org/2000/svg" viewBox="0 0 200 200">
  <defs>
    <linearGradient id="bg2048" x1="0%" y1="0%" x2="100%" y2="100%">
      <stop offset="0%" style="stop-color:#faf8ef"/>
      <stop offset="100%" style="stop-color:#bbada0"/>
    </linearGradient>
    <linearGradient id="tile2048" x1="0%" y1="0%" x2="100%" y2="100%">
      <stop offset="0%" style="stop-color:#edc22e"/>
      <stop offset="100%" style="stop-color:#f9c41b"/>
    </linearGradient>
  </defs>
  <!-- Background -->
  <rect width="200" height="200" rx="15" fill="url(#bg2048)"/>
  <!-- Grid -->
  <rect x="15" y="15" width="40" height="40" rx="8" fill="#cdc1b4"/>
  <rect x="60" y="15" width="40" height="40" rx="8" fill="#cdc1b4"/>
  <rect x="105" y="15" width="40" height="40" rx="8" fill="#cdc1b4"/>
  <rect x="150" y="15" width="40" height="40" rx="8" fill="#cdc1b4"/>
  <rect x="15" y="60" width="40" height="40" rx="8" fill="#cdc1b4"/>
  <rect x="60" y="60" width="40" height="40" rx="8" fill="url(#tile2048)"/>
  <rect x="105" y="60" width="40" height="40" rx="8" fill="#eee4da"/>
  <rect x="150" y="60" width="40" height="40" rx="8" fill="#cdc1b4"/>
  <rect x="15" y="105" width="40" height="40" rx="8" fill="#ede0c8"/>
  <rect x="60" y="105" width="40" height="40" rx="8" fill="#cdc1b4"/>
  <rect x="105" y="105" width="40" height="40" rx="8" fill="#f2b179"/>
  <rect x="150" y="105" width="40" height="40" rx="8" fill="#cdc1b4"/>
  <rect x="15" y="150" width="40" height="40" rx="8" fill="#cdc1b4"/>
  <rect x="60" y="150" width="40" height="40" rx="8" fill="#eee4da"/>
  <rect x="105" y="150" width="40" height="40" rx="8" fill="#cdc1b4"/>
  <rect x="150" y="150" width="40" height="40" rx="8" fill="#f67c5f"/>
  <!-- Numbers -->
  <text x="80" y="88" font-family="Arial Black, sans-serif" font-size="18" fill="#776e65" text-anchor="middle" font-weight="bold">2048</text>
  <text x="125" y="88" font-family="Arial Black, sans-serif" font-size="14" fill="#776e65" text-anchor="middle" font-weight="bold">2</text>
  <text x="35" y="132" font-family="Arial Black, sans-serif" font-size="14" fill="#776e65" text-anchor="middle" font-weight="bold">4</text>
  <text x="125" y="132" font-family="Arial Black, sans-serif" font-size="12" fill="#fff" text-anchor="middle" font-weight="bold">128</text>
  <text x="80" y="178" font-family="Arial Black, sans-serif" font-size="14" fill="#776e65" text-anchor="middle" font-weight="bold">2</text>
  <text x="170" y="178" font-family="Arial Black, sans-serif" font-size="12" fill="#fff" text-anchor="middle" font-weight="bold">256</text>
</svg>
