<svg xmlns="http://www.w3.org/2000/svg" viewBox="0 0 200 200">
  <defs>
    <linearGradient id="memoryBg" x1="0%" y1="0%" x2="100%" y2="100%">
      <stop offset="0%" style="stop-color:#667eea"/>
      <stop offset="100%" style="stop-color:#764ba2"/>
    </linearGradient>
    <linearGradient id="cardBackMem" x1="0%" y1="0%" x2="100%" y2="100%">
      <stop offset="0%" style="stop-color:#4a5568"/>
      <stop offset="100%" style="stop-color:#2d3748"/>
    </linearGradient>
    <linearGradient id="cardFrontMem" x1="0%" y1="0%" x2="0%" y2="100%">
      <stop offset="0%" style="stop-color:#ffffff"/>
      <stop offset="100%" style="stop-color:#f7fafc"/>
    </linearGradient>
  </defs>
  <!-- Background -->
  <rect width="200" height="200" rx="15" fill="url(#memoryBg)"/>
  <!-- Cards Grid -->
  <!-- Row 1 -->
  <rect x="15" y="15" width="38" height="50" rx="5" fill="url(#cardBackMem)" stroke="#1a202c" stroke-width="1"/>
  <text x="34" y="45" font-size="20" text-anchor="middle">❓</text>
  <rect x="58" y="15" width="38" height="50" rx="5" fill="url(#cardFrontMem)" stroke="#e2e8f0" stroke-width="1"/>
  <text x="77" y="47" font-size="24" text-anchor="middle">⭐</text>
  <rect x="101" y="15" width="38" height="50" rx="5" fill="url(#cardFrontMem)" stroke="#e2e8f0" stroke-width="1"/>
  <text x="120" y="47" font-size="24" text-anchor="middle">⭐</text>
  <rect x="144" y="15" width="38" height="50" rx="5" fill="url(#cardBackMem)" stroke="#1a202c" stroke-width="1"/>
  <text x="163" y="45" font-size="20" text-anchor="middle">❓</text>
  <!-- Row 2 -->
  <rect x="15" y="75" width="38" height="50" rx="5" fill="url(#cardFrontMem)" stroke="#e2e8f0" stroke-width="1"/>
  <text x="34" y="107" font-size="24" text-anchor="middle">🎮</text>
  <rect x="58" y="75" width="38" height="50" rx="5" fill="url(#cardBackMem)" stroke="#1a202c" stroke-width="1"/>
  <text x="77" y="105" font-size="20" text-anchor="middle">❓</text>
  <rect x="101" y="75" width="38" height="50" rx="5" fill="url(#cardBackMem)" stroke="#1a202c" stroke-width="1"/>
  <text x="120" y="105" font-size="20" text-anchor="middle">❓</text>
  <rect x="144" y="75" width="38" height="50" rx="5" fill="url(#cardFrontMem)" stroke="#e2e8f0" stroke-width="1"/>
  <text x="163" y="107" font-size="24" text-anchor="middle">🎮</text>
  <!-- Row 3 -->
  <rect x="15" y="135" width="38" height="50" rx="5" fill="url(#cardBackMem)" stroke="#1a202c" stroke-width="1"/>
  <text x="34" y="165" font-size="20" text-anchor="middle">❓</text>
  <rect x="58" y="135" width="38" height="50" rx="5" fill="url(#cardFrontMem)" stroke="#e2e8f0" stroke-width="1"/>
  <text x="77" y="167" font-size="24" text-anchor="middle">💎</text>
  <rect x="101" y="135" width="38" height="50" rx="5" fill="url(#cardBackMem)" stroke="#1a202c" stroke-width="1"/>
  <text x="120" y="165" font-size="20" text-anchor="middle">❓</text>
  <rect x="144" y="135" width="38" height="50" rx="5" fill="url(#cardFrontMem)" stroke="#e2e8f0" stroke-width="1"/>
  <text x="163" y="167" font-size="24" text-anchor="middle">💎</text>
  <!-- Match sparkle effect -->
  <g opacity="0.8">
    <circle cx="77" cy="40" r="3" fill="#ffd700"/>
    <circle cx="120" cy="40" r="3" fill="#ffd700"/>
    <circle cx="34" cy="100" r="3" fill="#ffd700"/>
    <circle cx="163" cy="100" r="3" fill="#ffd700"/>
  </g>
</svg>
