<svg xmlns="http://www.w3.org/2000/svg" viewBox="0 0 128 128" shape-rendering="crispEdges">
  <rect x="40" y="40" width="8" height="8" fill="#78909c"/>
  <rect x="48" y="40" width="8" height="8" fill="#78909c"/>
  <rect x="56" y="40" width="8" height="8" fill="#78909c"/>
  <rect x="64" y="40" width="8" height="8" fill="#78909c"/>
  <rect x="72" y="40" width="8" height="8" fill="#78909c"/>
  <rect x="80" y="40" width="8" height="8" fill="#78909c"/>
  <rect x="88" y="40" width="8" height="8" fill="#78909c"/>
  <rect x="32" y="48" width="8" height="8" fill="#78909c"/>
  <rect x="40" y="48" width="8" height="8" fill="#b0bec5"/>
  <rect x="48" y="48" width="8" height="8" fill="#b0bec5"/>
  <rect x="56" y="48" width="8" height="8" fill="#b0bec5"/>
  <rect x="64" y="48" width="8" height="8" fill="#78909c"/>
  <rect x="72" y="48" width="8" height="8" fill="#78909c"/>
  <rect x="80" y="48" width="8" height="8" fill="#78909c"/>
  <rect x="88" y="48" width="8" height="8" fill="#78909c"/>
  <rect x="96" y="48" width="8" height="8" fill="#78909c"/>
  <rect x="32" y="56" width="8" height="8" fill="#78909c"/>
  <rect x="40" y="56" width="8" height="8" fill="#689f38"/>
  <rect x="48" y="56" width="8" height="8" fill="#78909c"/>
  <rect x="56" y="56" width="8" height="8" fill="#78909c"/>
  <rect x="64" y="56" width="8" height="8" fill="#78909c"/>
  <rect x="72" y="56" width="8" height="8" fill="#78909c"/>
  <rect x="80" y="56" width="8" height="8" fill="#78909c"/>
  <rect x="88" y="56" width="8" height="8" fill="#78909c"/>
  <rect x="96" y="56" width="8" height="8" fill="#78909c"/>
  <rect x="32" y="64" width="8" height="8" fill="#78909c"/>
  <rect x="40" y="64" width="8" height="8" fill="#78909c"/>
  <rect x="48" y="64" width="8" height="8" fill="#78909c"/>
  <rect x="56" y="64" width="8" height="8" fill="#78909c"/>
  <rect x="64" y="64" width="8" height="8" fill="#78909c"/>
  <rect x="72" y="64" width="8" height="8" fill="#78909c"/>
  <rect x="80" y="64" width="8" height="8" fill="#78909c"/>
  <rect x="88" y="64" width="8" height="8" fill="#78909c"/>
  <rect x="96" y="64" width="8" height="8" fill="#78909c"/>
  <rect x="32" y="72" width="8" height="8" fill="#78909c"/>
  <rect x="40" y="72" width="8" height="8" fill="#78909c"/>
  <rect x="48" y="72" width="8" height="8" fill="#78909c"/>
  <rect x="56" y="72" width="8" height="8" fill="#78909c"/>
  <rect x="64" y="72" width="8" height="8" fill="#78909c"/>
  <rect x="72" y="72" width="8" height="8" fill="#546e7a"/>
  <rect x="80" y="72" width="8" height="8" fill="#546e7a"/>
  <rect x="88" y="72" width="8" height="8" fill="#546e7a"/>
  <rect x="96" y="72" width="8" height="8" fill="#78909c"/>
  <rect x="32" y="80" width="8" height="8" fill="#78909c"/>
  <rect x="40" y="80" width="8" height="8" fill="#78909c"/>
  <rect x="48" y="80" width="8" height="8" fill="#78909c"/>
  <rect x="56" y="80" width="8" height="8" fill="#78909c"/>
  <rect x="64" y="80" width="8" height="8" fill="#78909c"/>
  <rect x="72" y="80" width="8" height="8" fill="#78909c"/>
  <rect x="80" y="80" width="8" height="8" fill="#78909c"/>
  <rect x="88" y="80" width="8" height="8" fill="#78909c"/>
  <rect x="96" y="80" width="8" height="8" fill="#78909c"/>
  <rect x="40" y="88" width="8" height="8" fill="#78909c"/>
  <rect x="48" y="88" width="8" height="8" fill="#78909c"/>
  <rect x="56" y="88" width="8" height="8" fill="#78909c"/>
  <rect x="64" y="88" width="8" height="8" fill="#78909c"/>
  <rect x="72" y="88" width="8" height="8" fill="#78909c"/>
  <rect x="80" y="88" width="8" height="8" fill="#78909c"/>
  <rect x="88" y="88" width="8" height="8" fill="#78909c"/>
</svg>