<svg xmlns="http://www.w3.org/2000/svg" viewBox="0 0 128 128" shape-rendering="crispEdges">
  <rect x="32" y="48" width="8" height="8" fill="#9e9e9e"/>
  <rect x="40" y="48" width="8" height="8" fill="#9e9e9e"/>
  <rect x="56" y="48" width="8" height="8" fill="#9e9e9e"/>
  <rect x="64" y="48" width="8" height="8" fill="#9e9e9e"/>
  <rect x="80" y="48" width="8" height="8" fill="#9e9e9e"/>
  <rect x="88" y="48" width="8" height="8" fill="#9e9e9e"/>
  <rect x="24" y="56" width="8" height="8" fill="#9e9e9e"/>
  <rect x="32" y="56" width="8" height="8" fill="#616161"/>
  <rect x="48" y="56" width="8" height="8" fill="#9e9e9e"/>
  <rect x="56" y="56" width="8" height="8" fill="#9e9e9e"/>
  <rect x="72" y="56" width="8" height="8" fill="#9e9e9e"/>
  <rect x="80" y="56" width="8" height="8" fill="#9e9e9e"/>
  <rect x="96" y="56" width="8" height="8" fill="#9e9e9e"/>
  <rect x="24" y="64" width="8" height="8" fill="#9e9e9e"/>
  <rect x="40" y="64" width="8" height="8" fill="#9e9e9e"/>
  <rect x="48" y="64" width="8" height="8" fill="#616161"/>
  <rect x="64" y="64" width="8" height="8" fill="#757575"/>
  <rect x="72" y="64" width="8" height="8" fill="#9e9e9e"/>
  <rect x="80" y="64" width="8" height="8" fill="#757575"/>
  <rect x="88" y="64" width="8" height="8" fill="#9e9e9e"/>
  <rect x="96" y="64" width="8" height="8" fill="#9e9e9e"/>
  <rect x="32" y="72" width="8" height="8" fill="#9e9e9e"/>
  <rect x="40" y="72" width="8" height="8" fill="#757575"/>
  <rect x="56" y="72" width="8" height="8" fill="#757575"/>
  <rect x="64" y="72" width="8" height="8" fill="#9e9e9e"/>
  <rect x="72" y="72" width="8" height="8" fill="#757575"/>
  <rect x="80" y="72" width="8" height="8" fill="#9e9e9e"/>
  <rect x="88" y="72" width="8" height="8" fill="#9e9e9e"/>
  <rect x="24" y="80" width="8" height="8" fill="#9e9e9e"/>
  <rect x="32" y="80" width="8" height="8" fill="#9e9e9e"/>
  <rect x="48" y="80" width="8" height="8" fill="#757575"/>
  <rect x="56" y="80" width="8" height="8" fill="#9e9e9e"/>
  <rect x="64" y="80" width="8" height="8" fill="#757575"/>
  <rect x="72" y="80" width="8" height="8" fill="#9e9e9e"/>
  <rect x="80" y="80" width="8" height="8" fill="#757575"/>
  <rect x="96" y="80" width="8" height="8" fill="#9e9e9e"/>
  <rect x="24" y="88" width="8" height="8" fill="#9e9e9e"/>
  <rect x="40" y="88" width="8" height="8" fill="#757575"/>
  <rect x="48" y="88" width="8" height="8" fill="#9e9e9e"/>
  <rect x="56" y="88" width="8" height="8" fill="#757575"/>
  <rect x="64" y="88" width="8" height="8" fill="#9e9e9e"/>
  <rect x="72" y="88" width="8" height="8" fill="#757575"/>
  <rect x="88" y="88" width="8" height="8" fill="#9e9e9e"/>
  <rect x="96" y="88" width="8" height="8" fill="#9e9e9e"/>
  <rect x="48" y="96" width="8" height="8" fill="#757575"/>
  <rect x="64" y="96" width="8" height="8" fill="#757575"/>
  <rect x="80" y="96" width="8" height="8" fill="#757575"/>
</svg>