<svg xmlns="http://www.w3.org/2000/svg" viewBox="0 0 128 128" shape-rendering="crispEdges">
  <rect x="32" y="16" width="8" height="8" fill="#c62828"/>
  <rect x="40" y="16" width="8" height="8" fill="#c62828"/>
  <rect x="48" y="16" width="8" height="8" fill="#c62828"/>
  <rect x="56" y="16" width="8" height="8" fill="#c62828"/>
  <rect x="64" y="16" width="8" height="8" fill="#c62828"/>
  <rect x="72" y="16" width="8" height="8" fill="#c62828"/>
  <rect x="80" y="16" width="8" height="8" fill="#c62828"/>
  <rect x="88" y="16" width="8" height="8" fill="#c62828"/>
  <rect x="96" y="16" width="8" height="8" fill="#c62828"/>
  <rect x="40" y="24" width="8" height="8" fill="#c62828"/>
  <rect x="48" y="24" width="8" height="8" fill="#c62828"/>
  <rect x="56" y="24" width="8" height="8" fill="#c62828"/>
  <rect x="64" y="24" width="8" height="8" fill="#c62828"/>
  <rect x="72" y="24" width="8" height="8" fill="#c62828"/>
  <rect x="80" y="24" width="8" height="8" fill="#c62828"/>
  <rect x="88" y="24" width="8" height="8" fill="#795548"/>
  <rect x="48" y="32" width="8" height="8" fill="#c62828"/>
  <rect x="56" y="32" width="8" height="8" fill="#c62828"/>
  <rect x="64" y="32" width="8" height="8" fill="#c62828"/>
  <rect x="72" y="32" width="8" height="8" fill="#c62828"/>
  <rect x="80" y="32" width="8" height="8" fill="#c62828"/>
  <rect x="88" y="32" width="8" height="8" fill="#795548"/>
  <rect x="56" y="40" width="8" height="8" fill="#c62828"/>
  <rect x="64" y="40" width="8" height="8" fill="#c62828"/>
  <rect x="72" y="40" width="8" height="8" fill="#c62828"/>
  <rect x="24" y="48" width="8" height="8" fill="#ffcc80"/>
  <rect x="32" y="48" width="8" height="8" fill="#ffcc80"/>
  <rect x="40" y="48" width="8" height="8" fill="#ffcc80"/>
  <rect x="48" y="48" width="8" height="8" fill="#ffcc80"/>
  <rect x="56" y="48" width="8" height="8" fill="#ffcc80"/>
  <rect x="64" y="48" width="8" height="8" fill="#c62828"/>
  <rect x="72" y="48" width="8" height="8" fill="#ffcc80"/>
  <rect x="80" y="48" width="8" height="8" fill="#ffcc80"/>
  <rect x="88" y="48" width="8" height="8" fill="#ffcc80"/>
  <rect x="96" y="48" width="8" height="8" fill="#ffcc80"/>
  <rect x="24" y="56" width="8" height="8" fill="#ffcc80"/>
  <rect x="32" y="56" width="8" height="8" fill="#ffcc80"/>
  <rect x="40" y="56" width="8" height="8" fill="#ffcc80"/>
  <rect x="48" y="56" width="8" height="8" fill="#ffcc80"/>
  <rect x="56" y="56" width="8" height="8" fill="#ffcc80"/>
  <rect x="64" y="56" width="8" height="8" fill="#ffcc80"/>
  <rect x="72" y="56" width="8" height="8" fill="#ffcc80"/>
  <rect x="80" y="56" width="8" height="8" fill="#ffcc80"/>
  <rect x="88" y="56" width="8" height="8" fill="#ffcc80"/>
  <rect x="96" y="56" width="8" height="8" fill="#ffcc80"/>
  <rect x="24" y="64" width="8" height="8" fill="#ffcc80"/>
  <rect x="32" y="64" width="8" height="8" fill="#ffcc80"/>
  <rect x="40" y="64" width="8" height="8" fill="#64b5f6"/>
  <rect x="48" y="64" width="8" height="8" fill="#ffcc80"/>
  <rect x="56" y="64" width="8" height="8" fill="#ffcc80"/>
  <rect x="64" y="64" width="8" height="8" fill="#ffcc80"/>
  <rect x="72" y="64" width="8" height="8" fill="#ffcc80"/>
  <rect x="80" y="64" width="8" height="8" fill="#64b5f6"/>
  <rect x="88" y="64" width="8" height="8" fill="#ffcc80"/>
  <rect x="96" y="64" width="8" height="8" fill="#ffcc80"/>
  <rect x="24" y="72" width="8" height="8" fill="#ffcc80"/>
  <rect x="32" y="72" width="8" height="8" fill="#ffcc80"/>
  <rect x="40" y="72" width="8" height="8" fill="#ffcc80"/>
  <rect x="48" y="72" width="8" height="8" fill="#ffcc80"/>
  <rect x="56" y="72" width="8" height="8" fill="#5d4037"/>
  <rect x="64" y="72" width="8" height="8" fill="#ffcc80"/>
  <rect x="72" y="72" width="8" height="8" fill="#ffcc80"/>
  <rect x="80" y="72" width="8" height="8" fill="#ffcc80"/>
  <rect x="88" y="72" width="8" height="8" fill="#ffcc80"/>
  <rect x="96" y="72" width="8" height="8" fill="#ffcc80"/>
  <rect x="24" y="80" width="8" height="8" fill="#ffcc80"/>
  <rect x="32" y="80" width="8" height="8" fill="#ffcc80"/>
  <rect x="40" y="80" width="8" height="8" fill="#ffcc80"/>
  <rect x="48" y="80" width="8" height="8" fill="#ffcc80"/>
  <rect x="56" y="80" width="8" height="8" fill="#5d4037"/>
  <rect x="64" y="80" width="8" height="8" fill="#ffcc80"/>
  <rect x="72" y="80" width="8" height="8" fill="#ffcc80"/>
  <rect x="80" y="80" width="8" height="8" fill="#ffcc80"/>
  <rect x="88" y="80" width="8" height="8" fill="#ffcc80"/>
  <rect x="96" y="80" width="8" height="8" fill="#ffcc80"/>
  <rect x="24" y="88" width="8" height="8" fill="#ffcc80"/>
  <rect x="32" y="88" width="8" height="8" fill="#ffcc80"/>
  <rect x="40" y="88" width="8" height="8" fill="#ffcc80"/>
  <rect x="48" y="88" width="8" height="8" fill="#ffcc80"/>
  <rect x="56" y="88" width="8" height="8" fill="#ffcc80"/>
  <rect x="64" y="88" width="8" height="8" fill="#ffcc80"/>
  <rect x="72" y="88" width="8" height="8" fill="#ffcc80"/>
  <rect x="80" y="88" width="8" height="8" fill="#ffcc80"/>
  <rect x="88" y="88" width="8" height="8" fill="#ffcc80"/>
  <rect x="96" y="88" width="8" height="8" fill="#ffcc80"/>
</svg>