<svg xmlns="http://www.w3.org/2000/svg" viewBox="0 0 128 128" shape-rendering="crispEdges">
  <rect x="40" y="24" width="8" height="8" fill="#795548"/>
  <rect x="48" y="24" width="8" height="8" fill="#795548"/>
  <rect x="56" y="24" width="8" height="8" fill="#795548"/>
  <rect x="64" y="24" width="8" height="8" fill="#795548"/>
  <rect x="72" y="24" width="8" height="8" fill="#795548"/>
  <rect x="80" y="24" width="8" height="8" fill="#795548"/>
  <rect x="40" y="32" width="8" height="8" fill="#795548"/>
  <rect x="48" y="32" width="8" height="8" fill="#795548"/>
  <rect x="56" y="32" width="8" height="8" fill="#795548"/>
  <rect x="64" y="32" width="8" height="8" fill="#795548"/>
  <rect x="72" y="32" width="8" height="8" fill="#795548"/>
  <rect x="80" y="32" width="8" height="8" fill="#795548"/>
  <rect x="40" y="40" width="8" height="8" fill="#ffc107"/>
  <rect x="48" y="40" width="8" height="8" fill="#ffe082"/>
  <rect x="56" y="40" width="8" height="8" fill="#ffe082"/>
  <rect x="64" y="40" width="8" height="8" fill="#ffc107"/>
  <rect x="72" y="40" width="8" height="8" fill="#ffc107"/>
  <rect x="80" y="40" width="8" height="8" fill="#ffc107"/>
  <rect x="40" y="48" width="8" height="8" fill="#ffc107"/>
  <rect x="48" y="48" width="8" height="8" fill="#ffc107"/>
  <rect x="56" y="48" width="8" height="8" fill="#ffc107"/>
  <rect x="64" y="48" width="8" height="8" fill="#ffc107"/>
  <rect x="72" y="48" width="8" height="8" fill="#ffc107"/>
  <rect x="80" y="48" width="8" height="8" fill="#ffc107"/>
  <rect x="40" y="56" width="8" height="8" fill="#ffc107"/>
  <rect x="48" y="56" width="8" height="8" fill="#ffc107"/>
  <rect x="56" y="56" width="8" height="8" fill="#ffc107"/>
  <rect x="64" y="56" width="8" height="8" fill="#ffc107"/>
  <rect x="72" y="56" width="8" height="8" fill="#ffc107"/>
  <rect x="80" y="56" width="8" height="8" fill="#ffc107"/>
  <rect x="40" y="64" width="8" height="8" fill="#ffc107"/>
  <rect x="48" y="64" width="8" height="8" fill="#ffc107"/>
  <rect x="56" y="64" width="8" height="8" fill="#ffc107"/>
  <rect x="64" y="64" width="8" height="8" fill="#ffc107"/>
  <rect x="72" y="64" width="8" height="8" fill="#ffc107"/>
  <rect x="80" y="64" width="8" height="8" fill="#ffc107"/>
  <rect x="40" y="72" width="8" height="8" fill="#ffc107"/>
  <rect x="48" y="72" width="8" height="8" fill="#ffc107"/>
  <rect x="56" y="72" width="8" height="8" fill="#ffc107"/>
  <rect x="64" y="72" width="8" height="8" fill="#ffc107"/>
  <rect x="72" y="72" width="8" height="8" fill="#ffc107"/>
  <rect x="80" y="72" width="8" height="8" fill="#ffc107"/>
  <rect x="40" y="80" width="8" height="8" fill="#ff8f00"/>
  <rect x="48" y="80" width="8" height="8" fill="#ff8f00"/>
  <rect x="56" y="80" width="8" height="8" fill="#ff8f00"/>
  <rect x="64" y="80" width="8" height="8" fill="#ff8f00"/>
  <rect x="72" y="80" width="8" height="8" fill="#ff8f00"/>
  <rect x="80" y="80" width="8" height="8" fill="#ff8f00"/>
  <rect x="40" y="88" width="8" height="8" fill="#ff8f00"/>
  <rect x="48" y="88" width="8" height="8" fill="#ff8f00"/>
  <rect x="56" y="88" width="8" height="8" fill="#ff8f00"/>
  <rect x="64" y="88" width="8" height="8" fill="#ff8f00"/>
  <rect x="72" y="88" width="8" height="8" fill="#ff8f00"/>
  <rect x="80" y="88" width="8" height="8" fill="#ff8f00"/>
</svg>