<svg xmlns="http://www.w3.org/2000/svg" viewBox="0 0 128 128" shape-rendering="crispEdges">
  <rect x="32" y="32" width="8" height="8" fill="#e53935"/>
  <rect x="40" y="32" width="8" height="8" fill="#e53935"/>
  <rect x="48" y="32" width="8" height="8" fill="#e53935"/>
  <rect x="72" y="32" width="8" height="8" fill="#e53935"/>
  <rect x="80" y="32" width="8" height="8" fill="#e53935"/>
  <rect x="88" y="32" width="8" height="8" fill="#e53935"/>
  <rect x="32" y="40" width="8" height="8" fill="#e53935"/>
  <rect x="40" y="40" width="8" height="8" fill="#ef5350"/>
  <rect x="48" y="40" width="8" height="8" fill="#e53935"/>
  <rect x="72" y="40" width="8" height="8" fill="#e53935"/>
  <rect x="80" y="40" width="8" height="8" fill="#ef5350"/>
  <rect x="88" y="40" width="8" height="8" fill="#e53935"/>
  <rect x="32" y="48" width="8" height="8" fill="#e53935"/>
  <rect x="40" y="48" width="8" height="8" fill="#e53935"/>
  <rect x="48" y="48" width="8" height="8" fill="#e53935"/>
  <rect x="72" y="48" width="8" height="8" fill="#e53935"/>
  <rect x="80" y="48" width="8" height="8" fill="#e53935"/>
  <rect x="88" y="48" width="8" height="8" fill="#e53935"/>
  <rect x="64" y="56" width="8" height="8" fill="#e53935"/>
  <rect x="56" y="64" width="8" height="8" fill="#e53935"/>
  <rect x="64" y="64" width="8" height="8" fill="#e53935"/>
  <rect x="72" y="64" width="8" height="8" fill="#e53935"/>
  <rect x="48" y="72" width="8" height="8" fill="#e53935"/>
  <rect x="56" y="72" width="8" height="8" fill="#e53935"/>
  <rect x="64" y="72" width="8" height="8" fill="#e53935"/>
  <rect x="72" y="72" width="8" height="8" fill="#e53935"/>
  <rect x="80" y="72" width="8" height="8" fill="#e53935"/>
  <rect x="40" y="80" width="8" height="8" fill="#e53935"/>
  <rect x="48" y="80" width="8" height="8" fill="#e53935"/>
  <rect x="56" y="80" width="8" height="8" fill="#e53935"/>
  <rect x="64" y="80" width="8" height="8" fill="#e53935"/>
  <rect x="72" y="80" width="8" height="8" fill="#e53935"/>
  <rect x="80" y="80" width="8" height="8" fill="#e53935"/>
  <rect x="88" y="80" width="8" height="8" fill="#e53935"/>
</svg>