<svg xmlns="http://www.w3.org/2000/svg" viewBox="0 0 128 128" shape-rendering="crispEdges">
  <rect x="32" y="32" width="8" height="8" fill="#2196f3"/>
  <rect x="40" y="32" width="8" height="8" fill="#2196f3"/>
  <rect x="48" y="32" width="8" height="8" fill="#2196f3"/>
  <rect x="56" y="32" width="8" height="8" fill="#2196f3"/>
  <rect x="64" y="32" width="8" height="8" fill="#2196f3"/>
  <rect x="72" y="32" width="8" height="8" fill="#2196f3"/>
  <rect x="80" y="32" width="8" height="8" fill="#2196f3"/>
  <rect x="88" y="32" width="8" height="8" fill="#2196f3"/>
  <rect x="32" y="40" width="8" height="8" fill="#2196f3"/>
  <rect x="40" y="40" width="8" height="8" fill="#b3e5fc"/>
  <rect x="48" y="40" width="8" height="8" fill="#b3e5fc"/>
  <rect x="56" y="40" width="8" height="8" fill="#2196f3"/>
  <rect x="64" y="40" width="8" height="8" fill="#2196f3"/>
  <rect x="72" y="40" width="8" height="8" fill="#b3e5fc"/>
  <rect x="80" y="40" width="8" height="8" fill="#b3e5fc"/>
  <rect x="88" y="40" width="8" height="8" fill="#2196f3"/>
  <rect x="16" y="48" width="8" height="8" fill="#2196f3"/>
  <rect x="24" y="48" width="8" height="8" fill="#2196f3"/>
  <rect x="32" y="48" width="8" height="8" fill="#2196f3"/>
  <rect x="40" y="48" width="8" height="8" fill="#2196f3"/>
  <rect x="48" y="48" width="8" height="8" fill="#2196f3"/>
  <rect x="56" y="48" width="8" height="8" fill="#2196f3"/>
  <rect x="64" y="48" width="8" height="8" fill="#2196f3"/>
  <rect x="72" y="48" width="8" height="8" fill="#2196f3"/>
  <rect x="80" y="48" width="8" height="8" fill="#2196f3"/>
  <rect x="88" y="48" width="8" height="8" fill="#2196f3"/>
  <rect x="96" y="48" width="8" height="8" fill="#2196f3"/>
  <rect x="104" y="48" width="8" height="8" fill="#2196f3"/>
  <rect x="16" y="56" width="8" height="8" fill="#2196f3"/>
  <rect x="24" y="56" width="8" height="8" fill="#2196f3"/>
  <rect x="32" y="56" width="8" height="8" fill="#2196f3"/>
  <rect x="40" y="56" width="8" height="8" fill="#2196f3"/>
  <rect x="48" y="56" width="8" height="8" fill="#2196f3"/>
  <rect x="56" y="56" width="8" height="8" fill="#2196f3"/>
  <rect x="64" y="56" width="8" height="8" fill="#2196f3"/>
  <rect x="72" y="56" width="8" height="8" fill="#2196f3"/>
  <rect x="80" y="56" width="8" height="8" fill="#2196f3"/>
  <rect x="88" y="56" width="8" height="8" fill="#2196f3"/>
  <rect x="96" y="56" width="8" height="8" fill="#2196f3"/>
  <rect x="104" y="56" width="8" height="8" fill="#2196f3"/>
  <rect x="16" y="64" width="8" height="8" fill="#2196f3"/>
  <rect x="24" y="64" width="8" height="8" fill="#2196f3"/>
  <rect x="32" y="64" width="8" height="8" fill="#2196f3"/>
  <rect x="40" y="64" width="8" height="8" fill="#2196f3"/>
  <rect x="48" y="64" width="8" height="8" fill="#2196f3"/>
  <rect x="56" y="64" width="8" height="8" fill="#2196f3"/>
  <rect x="64" y="64" width="8" height="8" fill="#2196f3"/>
  <rect x="72" y="64" width="8" height="8" fill="#2196f3"/>
  <rect x="80" y="64" width="8" height="8" fill="#2196f3"/>
  <rect x="88" y="64" width="8" height="8" fill="#2196f3"/>
  <rect x="96" y="64" width="8" height="8" fill="#2196f3"/>
  <rect x="104" y="64" width="8" height="8" fill="#2196f3"/>
  <rect x="16" y="72" width="8" height="8" fill="#2196f3"/>
  <rect x="24" y="72" width="8" height="8" fill="#212121"/>
  <rect x="32" y="72" width="8" height="8" fill="#212121"/>
  <rect x="40" y="72" width="8" height="8" fill="#212121"/>
  <rect x="48" y="72" width="8" height="8" fill="#2196f3"/>
  <rect x="56" y="72" width="8" height="8" fill="#2196f3"/>
  <rect x="64" y="72" width="8" height="8" fill="#2196f3"/>
  <rect x="72" y="72" width="8" height="8" fill="#2196f3"/>
  <rect x="80" y="72" width="8" height="8" fill="#212121"/>
  <rect x="88" y="72" width="8" height="8" fill="#212121"/>
  <rect x="96" y="72" width="8" height="8" fill="#212121"/>
  <rect x="104" y="72" width="8" height="8" fill="#2196f3"/>
  <rect x="24" y="80" width="8" height="8" fill="#212121"/>
  <rect x="32" y="80" width="8" height="8" fill="#212121"/>
  <rect x="40" y="80" width="8" height="8" fill="#212121"/>
  <rect x="80" y="80" width="8" height="8" fill="#212121"/>
  <rect x="88" y="80" width="8" height="8" fill="#212121"/>
  <rect x="96" y="80" width="8" height="8" fill="#212121"/>
  <rect x="24" y="88" width="8" height="8" fill="#212121"/>
  <rect x="32" y="88" width="8" height="8" fill="#212121"/>
  <rect x="40" y="88" width="8" height="8" fill="#212121"/>
  <rect x="80" y="88" width="8" height="8" fill="#212121"/>
  <rect x="88" y="88" width="8" height="8" fill="#212121"/>
  <rect x="96" y="88" width="8" height="8" fill="#212121"/>
</svg>