<svg xmlns="http://www.w3.org/2000/svg" viewBox="0 0 128 128" shape-rendering="crispEdges">
  <rect x="48" y="16" width="8" height="8" fill="#f44336"/>
  <rect x="56" y="16" width="8" height="8" fill="#f44336"/>
  <rect x="64" y="16" width="8" height="8" fill="#f44336"/>
  <rect x="72" y="16" width="8" height="8" fill="#f44336"/>
  <rect x="48" y="24" width="8" height="8" fill="#f44336"/>
  <rect x="56" y="24" width="8" height="8" fill="#f44336"/>
  <rect x="64" y="24" width="8" height="8" fill="#f44336"/>
  <rect x="72" y="24" width="8" height="8" fill="#f44336"/>
  <rect x="40" y="32" width="8" height="8" fill="#4caf50"/>
  <rect x="48" y="32" width="8" height="8" fill="#4caf50"/>
  <rect x="56" y="32" width="8" height="8" fill="#4caf50"/>
  <rect x="64" y="32" width="8" height="8" fill="#4caf50"/>
  <rect x="72" y="32" width="8" height="8" fill="#4caf50"/>
  <rect x="80" y="32" width="8" height="8" fill="#4caf50"/>
  <rect x="40" y="40" width="8" height="8" fill="#4caf50"/>
  <rect x="48" y="40" width="8" height="8" fill="#ff5722"/>
  <rect x="56" y="40" width="8" height="8" fill="#4caf50"/>
  <rect x="64" y="40" width="8" height="8" fill="#4caf50"/>
  <rect x="72" y="40" width="8" height="8" fill="#ff5722"/>
  <rect x="80" y="40" width="8" height="8" fill="#4caf50"/>
  <rect x="40" y="48" width="8" height="8" fill="#4caf50"/>
  <rect x="48" y="48" width="8" height="8" fill="#4caf50"/>
  <rect x="56" y="48" width="8" height="8" fill="#4caf50"/>
  <rect x="64" y="48" width="8" height="8" fill="#4caf50"/>
  <rect x="72" y="48" width="8" height="8" fill="#4caf50"/>
  <rect x="80" y="48" width="8" height="8" fill="#4caf50"/>
  <rect x="40" y="56" width="8" height="8" fill="#4caf50"/>
  <rect x="48" y="56" width="8" height="8" fill="#4caf50"/>
  <rect x="56" y="56" width="8" height="8" fill="#4caf50"/>
  <rect x="64" y="56" width="8" height="8" fill="#4caf50"/>
  <rect x="72" y="56" width="8" height="8" fill="#4caf50"/>
  <rect x="80" y="56" width="8" height="8" fill="#4caf50"/>
  <rect x="40" y="64" width="8" height="8" fill="#4caf50"/>
  <rect x="48" y="64" width="8" height="8" fill="#4caf50"/>
  <rect x="56" y="64" width="8" height="8" fill="#4caf50"/>
  <rect x="64" y="64" width="8" height="8" fill="#4caf50"/>
  <rect x="72" y="64" width="8" height="8" fill="#4caf50"/>
  <rect x="80" y="64" width="8" height="8" fill="#4caf50"/>
</svg>