<svg xmlns="http://www.w3.org/2000/svg" viewBox="0 0 128 128" shape-rendering="crispEdges">
  <rect x="56" y="48" width="8" height="8" fill="#bdbdbd"/>
  <rect x="64" y="48" width="8" height="8" fill="#bdbdbd"/>
  <rect x="32" y="56" width="8" height="8" fill="#f44336"/>
  <rect x="40" y="56" width="8" height="8" fill="#f44336"/>
  <rect x="48" y="56" width="8" height="8" fill="#f44336"/>
  <rect x="56" y="56" width="8" height="8" fill="#f44336"/>
  <rect x="64" y="56" width="8" height="8" fill="#f44336"/>
  <rect x="72" y="56" width="8" height="8" fill="#f44336"/>
  <rect x="80" y="56" width="8" height="8" fill="#f44336"/>
  <rect x="88" y="56" width="8" height="8" fill="#f44336"/>
  <rect x="16" y="64" width="8" height="8" fill="#212121"/>
  <rect x="24" y="64" width="8" height="8" fill="#212121"/>
  <rect x="32" y="64" width="8" height="8" fill="#212121"/>
  <rect x="40" y="64" width="8" height="8" fill="#f44336"/>
  <rect x="48" y="64" width="8" height="8" fill="#f44336"/>
  <rect x="56" y="64" width="8" height="8" fill="#f44336"/>
  <rect x="64" y="64" width="8" height="8" fill="#f44336"/>
  <rect x="72" y="64" width="8" height="8" fill="#f44336"/>
  <rect x="80" y="64" width="8" height="8" fill="#f44336"/>
  <rect x="88" y="64" width="8" height="8" fill="#212121"/>
  <rect x="96" y="64" width="8" height="8" fill="#212121"/>
  <rect x="104" y="64" width="8" height="8" fill="#212121"/>
  <rect x="16" y="72" width="8" height="8" fill="#212121"/>
  <rect x="24" y="72" width="8" height="8" fill="#212121"/>
  <rect x="32" y="72" width="8" height="8" fill="#212121"/>
  <rect x="88" y="72" width="8" height="8" fill="#212121"/>
  <rect x="96" y="72" width="8" height="8" fill="#212121"/>
  <rect x="104" y="72" width="8" height="8" fill="#212121"/>
  <rect x="16" y="80" width="8" height="8" fill="#212121"/>
  <rect x="24" y="80" width="8" height="8" fill="#212121"/>
  <rect x="32" y="80" width="8" height="8" fill="#212121"/>
  <rect x="88" y="80" width="8" height="8" fill="#212121"/>
  <rect x="96" y="80" width="8" height="8" fill="#212121"/>
  <rect x="104" y="80" width="8" height="8" fill="#212121"/>
  <rect x="16" y="88" width="8" height="8" fill="#212121"/>
  <rect x="24" y="88" width="8" height="8" fill="#212121"/>
  <rect x="32" y="88" width="8" height="8" fill="#212121"/>
  <rect x="88" y="88" width="8" height="8" fill="#212121"/>
  <rect x="96" y="88" width="8" height="8" fill="#212121"/>
  <rect x="104" y="88" width="8" height="8" fill="#212121"/>
</svg>